<svg xmlns="http://www.w3.org/2000/svg" viewBox="0 0 454.573 701.333" role="img" aria-labelledby="title">
  <title id="title">Emblema FIFA World Cup 2026</title>
  <defs>
    <clipPath id="mark-clip">
      <path d="M0 295.739h228.526V0H0Z"/>
    </clipPath>
  </defs>
  <g transform="matrix(2.66667 0 0 -2.66667 -77.414 744.985)" clip-path="url(#mark-clip)">
    <path fill="#f4f0e8" d="M156.879 144.218H71.647c-23.538 0-42.617-19.08-42.617-42.616V58.986c0-23.537 19.079-42.617 42.617-42.617h85.232c23.537 0 42.616 19.08 42.616 42.617 0 23.536-19.079 42.616-42.616 42.616h42.616c0 23.536-19.079 42.616-42.616 42.616m0 135.151H71.647c-23.538 0-42.617-19.08-42.617-42.616h42.617c-23.538 0-42.617-19.079-42.617-42.616V151.52h170.465v42.617h-42.616c23.537 0 42.616 19.08 42.616 42.616 0 23.536-19.079 42.616-42.616 42.616"/>
    <path fill="#050a12" d="M79.293 66.149V41.292h7.68v8.977h5.528l1.966 5.432h-7.494v5.032h9.308l1.959 5.416Zm21.296 0 .001-24.857h7.679v24.857Zm12.964 0V41.292h7.68v8.977h5.528l1.966 5.432h-7.494v5.032h9.308l1.959 5.416Zm27.837-6.388 3.069-10.354h-6.037Zm-3.871 6.388-8.989-24.859h7.561l.96 3.34h8.679l1.003-3.34h7.756l-8.986 24.859Z"/>
    <path fill="#f4f0e8" d="M194.957 20.935h-.722V16.37h.722v1.818h3.662v.922h-3.662Zm3.662 6.585h-3.984c-.125 0-.223-.033-.293-.1-.072-.067-.107-.163-.107-.287v-1.018l3.47-1.61-3.47-1.614v-1.013c0-.121.035-.215.107-.287.07-.07.168-.106.293-.106h3.984v.896h-3.661l3.661 1.677v.883l-3.661 1.683h3.661Z"/>
  </g>
</svg>
